HIERARCHY
ROOT Hips
{
	OFFSET 0.000000 8.830580 0.000000
	CHANNELS 6 Xposition Yposition Zposition Zrotation Yrotation Xrotation 
	JOINT Spine
	{
		OFFSET 0.000000 0.010000 0.000000
		CHANNELS 3 Zrotation Yrotation Xrotation
		JOINT Spine1
		{
			OFFSET 0.000000 2.459130 0.000000
			CHANNELS 3 Zrotation Yrotation Xrotation
			JOINT Neck
			{
				OFFSET 0.000000 2.484630 0.000000
				CHANNELS 3 Zrotation Yrotation Xrotation
				JOINT Head_virtual
				{
					OFFSET 0.000000 0.000000 0.000000
					CHANNELS 3 Zrotation Yrotation Xrotation
					JOINT Head
					{
						OFFSET 0.000000 0.927525 0.000000
						CHANNELS 3 Zrotation Yrotation Xrotation
						End Site
						{
							OFFSET 0.000000 0.000000 0.000000
						}
					}
				}
				JOINT LeftUpArm_virtual
				{
					OFFSET 0.000000 0.000000 0.000000
					CHANNELS 3 Zrotation Yrotation Xrotation
					JOINT LeftUpArm
					{
						OFFSET 1.248820 0.000000 0.000000
						CHANNELS 3 Zrotation Yrotation Xrotation
						JOINT LeftForeArm
						{
							OFFSET 2.597580 0.000000 0.000000
							CHANNELS 3 Zrotation Yrotation Xrotation
							JOINT LeftHand
							{
								OFFSET 2.455420 0.000000 0.000000
								CHANNELS 3 Zrotation Yrotation Xrotation
								End Site
								{
									OFFSET 0.000000 0.000000 0.000000
								}
							}
						}
					}
				}
				JOINT RightUpArm_virtual
				{
					OFFSET -0.000000 -0.000000 -0.000000
					CHANNELS 3 Zrotation Yrotation Xrotation
					JOINT RightUpArm
					{
						OFFSET -1.248820 -0.000000 -0.000000
						CHANNELS 3 Zrotation Yrotation Xrotation
						JOINT RightForeArm
						{
							OFFSET -2.597580 -0.000000 -0.000000
							CHANNELS 3 Zrotation Yrotation Xrotation
							JOINT RightHand
							{
								OFFSET -2.455420 -0.000000 -0.000000
								CHANNELS 3 Zrotation Yrotation Xrotation
								End Site
								{
									OFFSET 0.000000 0.000000 0.000000
								}
							}
						}
					}
				}
			}
		}
	}
	JOINT LeftUpLeg
	{
		OFFSET 1.271939 0.000000 0.000000
		CHANNELS 3 Zrotation Yrotation Xrotation
		JOINT LeftLowLeg
		{
			OFFSET 0.000000 -4.342910 0.000000
			CHANNELS 3 Zrotation Yrotation Xrotation
			JOINT LeftFoot
			{
				OFFSET 0.000000 -4.487670 0.000000
				CHANNELS 3 Zrotation Yrotation Xrotation
				JOINT LeftToeBase
				{
					OFFSET 0.000000 0.000000 1.515070
					CHANNELS 3 Zrotation Yrotation Xrotation
					End Site
					{
						OFFSET 0.000000 0.000000 0.000000
					}
				}
			}
		}
	}
	JOINT RightUpLeg
	{
		OFFSET -1.271939 0.000000 0.000000
		CHANNELS 3 Zrotation Yrotation Xrotation
		JOINT RightLowLeg
		{
			OFFSET 0.000000 -4.342910 0.000000
			CHANNELS 3 Zrotation Yrotation Xrotation
			JOINT RightFoot
			{
				OFFSET 0.000000 -4.487670 0.000000
				CHANNELS 3 Zrotation Yrotation Xrotation
				JOINT RightToeBase
				{
					OFFSET 0.000000 0.000000 1.515070
					CHANNELS 3 Zrotation Yrotation Xrotation
					End Site
					{
						OFFSET 0.000000 0.000000 0.000000
					}
				}
			}
		}
	}
}
MOTION
Frames: 13
Frame Time: 0.041667
-17.680650 9.271837 46.489089 -174.577471 -0.483446 177.317817 5.631604 -2.018949 -22.406664 -0.302981 -0.635888 38.247983 0.000000 0.000000 0.000000 -4.769947 0.012262 -10.530799 6.484905 5.960257 -68.143652 -28.242500 -3.585650 -7.135000 -36.417301 -0.022815 36.266800 0.000000 -28.228500 0.000000 8.226830 6.634780 1.851480 27.570299 1.307460 0.081093 38.544701 8.360880 23.563601 0.000000 29.387100 0.000000 -5.526560 -2.285920 -8.587300 9.438021 21.772228 11.478775 0.000000 0.000000 0.819060 -9.269544 5.896397 9.020792 0.000000 0.000000 -9.940370 11.204973 12.187881 6.009482 0.000000 0.000000 6.989510 14.444744 -26.489145 6.923254 0.000000 0.000000 -8.765270 
-17.680472 9.271395 46.485365 -174.569467 -0.561346 177.293659 5.605532 -1.990893 -22.467301 -0.304644 -0.594439 38.250329 0.000000 0.000000 0.000000 -4.807232 0.006164 -10.433688 6.542409 5.929276 -68.093357 -28.269800 -3.418740 -6.998930 -36.475399 0.218529 36.185501 0.000000 -27.746500 0.000000 8.066950 6.688940 1.341890 27.573099 1.254000 0.126300 38.538101 8.292310 23.694700 0.000000 28.978701 0.000000 -5.697550 -1.939530 -8.133370 9.470389 21.749876 11.515077 0.000000 0.000000 0.805595 -9.449998 5.791773 8.952755 0.000000 0.000000 -9.769240 11.209938 12.076189 6.007375 0.000000 0.000000 7.071700 14.478112 -26.434661 6.882485 0.000000 0.000000 -8.789690 
-17.678413 9.271011 46.481490 -174.564492 -0.647762 177.205225 5.566347 -1.923304 -22.478355 -0.329714 -0.528133 38.288222 0.000000 0.000000 0.000000 -4.734613 -0.028198 -10.373282 6.542746 5.919491 -68.031157 -28.232201 -3.281730 -7.049800 -36.535000 0.568746 36.110001 0.000000 -27.412600 0.000000 7.760250 6.823710 1.715840 27.613800 1.250210 0.080675 38.557701 8.058560 23.541800 0.000000 28.671400 0.000000 -5.460590 -2.070450 -8.212640 9.493997 21.571639 11.569787 0.000000 0.000000 0.864532 -9.300448 5.898442 8.957863 0.000000 0.000000 -9.939120 11.249322 12.009988 6.082852 0.000000 0.000000 7.134810 14.506058 -26.452313 6.836219 0.000000 0.000000 -8.795850 
-17.675918 9.270535 46.477990 -174.562725 -0.790115 177.136022 5.498198 -1.888933 -22.500697 -0.259777 -0.428819 38.300568 0.000000 0.000000 0.000000 -4.711118 -0.076549 -10.261771 6.625372 5.871936 -68.010901 -28.253401 -3.194800 -7.111060 -36.525600 0.914542 36.006802 0.000000 -27.191900 0.000000 7.572250 6.917730 1.628140 27.606501 1.169470 0.132319 38.613300 7.921560 23.305000 0.000000 28.304701 0.000000 -5.206550 -2.307930 -8.272380 9.500627 21.349364 11.591319 0.000000 0.000000 0.907145 -9.446876 5.952262 8.848988 0.000000 0.000000 -9.759900 11.287402 11.946645 6.141147 0.000000 0.000000 7.191650 14.535749 -26.504084 6.773670 0.000000 0.000000 -8.824590 
-17.672674 9.270073 46.475083 -174.571846 -0.978639 177.051308 5.425052 -1.863724 -22.509059 -0.233256 -0.349424 38.343445 0.000000 0.000000 0.000000 -4.602463 -0.159045 -10.237521 6.600035 5.838612 -68.006070 -28.238400 -3.072530 -7.144220 -36.501202 1.157010 35.900600 0.000000 -27.053499 0.000000 7.448940 6.973290 1.329830 27.615499 1.110030 0.120093 38.673801 7.753240 23.143200 0.000000 27.889400 0.000000 -5.083480 -2.127420 -8.319810 9.545330 21.305999 11.624227 0.000000 0.000000 0.949501 -9.286966 5.856218 8.914822 0.000000 0.000000 -9.934010 11.318754 11.847922 6.220815 0.000000 0.000000 7.227830 14.614094 -26.553525 6.686092 0.000000 0.000000 -8.827640 
-17.668384 9.269543 46.472151 -174.587960 -1.191511 176.947250 5.321225 -1.885043 -22.483732 -0.158998 -0.265774 38.336986 0.000000 0.000000 0.000000 -4.647131 -0.167642 -10.119103 6.658278 5.813610 -68.019133 -28.274000 -2.972460 -7.180120 -36.411499 1.419100 35.804001 0.000000 -27.006100 0.000000 7.450190 6.971170 1.159020 27.617701 1.041060 0.110095 38.720600 7.596970 23.318600 0.000000 27.398399 0.000000 -5.235180 -1.984280 -9.115870 9.584931 21.200325 11.645352 0.000000 0.000000 1.033960 -9.428312 5.737893 8.843672 0.000000 0.000000 -9.779120 11.369211 11.810892 6.343996 0.000000 0.000000 7.221620 14.664076 -26.696375 6.591598 0.000000 0.000000 -8.827190 
-17.663812 9.269218 46.469455 -174.627278 -1.455379 176.866366 5.236182 -1.813600 -22.498988 -0.210572 -0.174720 38.367711 0.000000 0.000000 0.000000 -4.486999 -0.225096 -10.063218 6.676325 5.819841 -67.990027 -28.208401 -2.868550 -7.162050 -36.320702 1.536890 35.705601 0.000000 -27.049500 0.000000 7.530040 7.071230 1.011430 27.633699 0.978347 0.070417 38.844700 7.347860 23.331100 0.000000 26.997700 0.000000 -4.907820 -2.443130 -7.910110 9.562191 20.972322 11.605556 0.000000 0.000000 1.139260 -9.395417 5.742708 8.831474 0.000000 0.000000 -9.790380 11.403918 11.803286 6.448019 0.000000 0.000000 7.210610 14.743528 -26.906388 6.456972 0.000000 0.000000 -8.817550 
-17.659356 9.268889 46.466738 -174.658822 -1.726349 176.763477 5.165721 -1.744743 -22.487797 -0.257459 -0.095639 38.390063 0.000000 0.000000 0.000000 -4.420928 -0.237907 -9.988069 6.722774 5.828178 -67.957411 -28.139999 -2.771400 -7.238330 -36.226299 1.676940 35.643299 0.000000 -27.107800 0.000000 7.606200 7.018890 0.994851 27.688900 0.878819 0.163314 38.922298 7.238800 23.122999 0.000000 26.661800 0.000000 -4.526350 -2.694420 -8.089160 9.571100 20.806900 11.600857 0.000000 0.000000 1.227040 -9.392360 5.669048 8.829899 0.000000 0.000000 -9.778020 11.422613 11.615171 6.585385 0.000000 0.000000 7.157930 14.758595 -26.984924 6.397253 0.000000 0.000000 -8.803440 
-17.653210 9.269193 46.465257 -174.687502 -2.007287 176.718395 5.078580 -1.712247 -22.521008 -0.296080 -0.024270 38.411103 0.000000 0.000000 0.000000 -4.386536 -0.212131 -9.892916 6.658715 5.885403 -67.933653 -28.072000 -2.642140 -7.314280 -36.140202 1.741080 35.564701 0.000000 -27.220200 0.000000 7.732910 7.049070 1.004890 27.727501 0.877447 0.205851 38.973999 7.052590 23.240400 0.000000 26.274000 0.000000 -4.209190 -2.948480 -7.207210 9.566457 20.622675 11.514363 0.000000 0.000000 1.333190 -9.379713 5.593318 8.853470 0.000000 0.000000 -9.813560 11.439517 11.430299 6.647184 0.000000 0.000000 7.120940 14.749226 -27.073669 6.362725 0.000000 0.000000 -8.808620 
-17.647350 9.269181 46.464487 -174.717242 -2.284896 176.650788 4.978477 -1.690546 -22.514938 -0.245741 0.079246 38.417844 0.000000 0.000000 0.000000 -4.316353 -0.247173 -9.842458 6.612748 5.880617 -67.862970 -28.031799 -2.631870 -7.479710 -36.055000 1.905860 35.443298 0.000000 -27.364401 0.000000 7.839090 7.090240 1.321380 27.732201 0.827524 0.198423 39.019901 6.855190 23.407400 0.000000 25.984501 0.000000 -4.296960 -2.878780 -6.985780 9.570659 20.461021 11.443821 0.000000 0.000000 1.450340 -9.371793 5.491874 8.861059 0.000000 0.000000 -9.805560 11.467479 11.322582 6.695256 0.000000 0.000000 7.159000 14.796495 -27.203139 6.262233 0.000000 0.000000 -8.807910 
-17.641201 9.269062 46.464668 -174.750453 -2.590611 176.577242 4.845659 -1.763713 -22.477831 -0.119443 0.165748 38.385490 0.000000 0.000000 0.000000 -4.422374 -0.228622 -9.724392 6.683752 5.850533 -67.859106 -28.066601 -2.570900 -7.588090 -35.953899 1.961980 35.346500 0.000000 -27.527300 0.000000 8.122570 7.052700 -0.104204 27.699600 0.790815 0.230370 39.029400 6.683440 23.453300 0.000000 25.749901 0.000000 -3.873090 -2.976980 -6.967200 9.538354 20.119075 11.373849 0.000000 0.000000 1.531790 -9.372514 5.517356 8.869440 0.000000 0.000000 -9.807420 11.477585 11.091161 6.734960 0.000000 0.000000 7.201070 14.826305 -27.273407 6.178891 0.000000 0.000000 -8.791450 
-17.636313 9.268806 46.464820 -174.770933 -2.792710 176.548843 4.783374 -1.728793 -22.481892 -0.097281 0.242055 38.385506 0.000000 0.000000 0.000000 -4.424543 -0.234875 -9.702480 6.721926 5.832838 -67.826162 -28.037901 -2.551160 -7.642380 -35.883900 1.949360 35.241901 0.000000 -27.658800 0.000000 8.180450 6.993910 -0.245479 27.661699 0.742922 0.227788 39.116901 6.578900 23.562099 0.000000 25.559200 0.000000 -4.079600 -2.698930 -7.950400 9.525934 19.945433 11.316976 0.000000 0.000000 1.568740 -9.378543 5.496168 8.883328 0.000000 0.000000 -9.823390 11.473472 10.853420 6.738287 0.000000 0.000000 7.223920 14.782025 -27.256374 6.169617 0.000000 0.000000 -8.800250 
-17.628321 9.268036 46.465382 -174.789755 -3.063203 176.494069 4.692734 -1.715978 -22.458522 -0.052161 0.329624 38.368049 0.000000 0.000000 0.000000 -4.469577 -0.252915 -9.636436 6.744382 5.798151 -67.838109 -28.034700 -2.553520 -7.560510 -35.733299 1.878980 35.030701 0.000000 -27.929600 0.000000 8.383240 6.973930 -0.230065 27.664900 0.633240 0.211668 39.154800 6.496650 23.748699 0.000000 25.398001 0.000000 -3.780020 -2.987280 -6.571020 9.502424 19.554264 11.263911 0.000000 0.000000 1.589090 -9.395716 5.579725 8.878615 0.000000 0.000000 -9.798710 11.518930 10.740112 6.730889 0.000000 0.000000 7.321960 14.839600 -27.382872 6.045945 0.000000 0.000000 -8.799290 
